<!DOCTYPE svg PUBLIC "-//W3C//DTD SVG 20010904//EN" "http://www.w3.org/TR/2001/REC-SVG-20010904/DTD/svg10.dtd"[]><svg version="1.0" xmlns="http://www.w3.org/2000/svg" width="960" height="960" viewBox="0 0 300.000000 300.000000" preserveAspectRatio="xMidYMid meet"><metadata>Created by potrace 1.10, written by Peter Selinger 2001-2011</metadata><g transform="translate(0.000000,300.000000) scale(0.050000,-0.050000)" fill="#000000" stroke="none"><path d="M2370 5819 c-670 -46 -1015 -98 -1084 -163 -150 -140 -222 -1572 -134 -2646 92 -1127 450 -2658 643 -2757 203 -104 2208 -100 2395 4 52 29 71 68 144 284 471 1401 639 3155 453 4739 -35 295 -59 365 -144 408 -182 95 -1612 177 -2273 131z m590 -627 l0 -489 -100 -21 c-128 -28 -266 -93 -313 -148 -36 -43 -36 -43 3 -15 35 25 37 25 14 0 -14 -16 -35 -30 -45 -31 -10 -2 -29 -4 -41 -5 -12 -2 -17 -16 -11 -31 5 -16 -9 -45 -33 -65 l-44 -37 40 50 c33 41 34 44 4 21 -42 -32 -91 -114 -56 -92 13 8 8 -18 -11 -57 -18 -39 -43 -65 -53 -58 -12 7 -16 -5 -9 -31 6 -24 4 -39 -5 -33 -17 11 -39 -57 -40 -125 l0 -45 -522 0 c-452 0 -520 4 -499 29 34 41 66 259 62 426 -2 79 3 155 12 169 21 34 25 71 37 326 5 121 15 256 22 300 7 44 11 100 10 125 -1 25 7 45 18 45 11 0 20 17 20 38 0 65 257 177 262 114 1 -13 5 -12 11 3 6 14 17 21 26 16 9 -6 78 3 153 18 165 33 443 51 497 32 22 -8 60 -3 86 10 53 27 125 17 125 -18 0 -13 8 -11 18 5 10 15 32 23 49 16 17 -6 35 -1 40 12 7 17 16 15 31 -6 20 -27 24 -27 42 0 11 17 20 24 20 17 0 -8 25 -6 55 3 133 40 125 71 125 -468z m230 448 c11 -8 119 -16 240 -17 292 -2 635 -24 660 -42 11 -9 74 -16 140 -18 66 -1 123 -11 127 -23 3 -11 15 -15 25 -9 10 6 18 2 18 -11 0 -15 11 -15 40 0 32 17 40 15 40 -9 0 -17 14 -31 30 -31 17 0 31 -11 33 -25 2 -14 5 -34 8 -45 2 -11 5 -90 7 -176 1 -86 10 -151 20 -145 20 12 36 -72 41 -208 2 -49 13 -101 25 -115 11 -14 13 -26 3 -26 -9 0 -17 -45 -17 -100 0 -55 7 -100 17 -100 9 0 15 -88 14 -195 -1 -107 4 -233 11 -280 l12 -85 -451 0 c-248 0 -455 7 -461 16 -5 9 -12 54 -15 100 -3 46 -12 84 -21 84 -9 0 -16 19 -16 43 0 75 -283 389 -328 363 -12 -7 -16 -5 -8 3 36 40 -95 106 -194 98 -69 -5 -73 -3 -30 13 40 15 30 17 -45 10 l-95 -9 0 490 0 491 75 -14 c41 -7 84 -20 95 -28z m14 -1100 c116 -45 190 -93 171 -111 -6 -7 -33 -2 -58 10 -29 14 -19 -1 26 -38 412 -347 181 -1000 -353 -1000 -372 0 -632 327 -553 695 22 103 35 124 160 267 71 80 70 91 -3 56 -31 -15 -26 -6 16 30 147 126 401 165 594 91z m-981 -616 c22 -3 37 -31 45 -89 18 -118 105 -302 135 -283 13 8 18 6 11 -6 -17 -28 44 -109 70 -93 13 7 16 4 9 -8 -16 -26 33 -68 70 -61 15 3 25 -5 22 -19 -8 -42 223 -144 330 -145 87 0 63 -142 -31 -182 -193 -81 -176 -411 22 -449 l64 -12 -6 -253 -6 -254 -264 5 c-512 9 -1328 86 -1306 122 17 28 33 243 18 243 -17 0 -22 36 -30 245 -3 74 -12 135 -21 135 -26 0 -17 136 10 145 19 7 16 19 -8 47 -26 30 -34 84 -36 257 -1 121 -10 228 -20 238 -9 9 -10 43 0 75 9 32 10 58 3 58 -8 0 -16 40 -18 89 -2 49 -19 112 -37 140 l-33 50 297 5 c324 7 658 6 710 0z m2317 -2 l151 -2 -24 -355 c-27 -407 -46 -548 -68 -534 -9 5 -23 -1 -31 -14 -8 -14 -6 -18 7 -10 11 7 26 -1 33 -18 8 -21 4 -26 -13 -16 -19 11 -20 8 -3 -14 23 -31 23 -100 1 -179 -13 -44 -23 -106 -31 -195 -1 -14 -9 -24 -17 -23 -38 6 -65 -4 -65 -24 0 -17 8 -16 28 1 17 13 33 15 40 4 13 -21 -45 -41 -83 -28 -14 5 -19 19 -11 32 7 13 -2 11 -20 -4 -22 -18 -34 -20 -34 -5 0 27 -154 30 -163 3 -4 -10 -50 -21 -103 -24 -53 -2 -102 -13 -108 -24 -7 -11 0 -13 16 -5 15 8 11 1 -11 -17 -21 -17 -46 -31 -56 -31 -10 0 -12 -8 -6 -19 6 -10 3 -24 -8 -31 -75 -46 112 -140 284 -142 101 -2 187 -13 203 -26 19 -16 33 -17 41 -3 21 33 48 24 42 -14 -5 -39 -167 -67 -536 -94 -106 -8 -209 -17 -229 -21 -20 -4 -182 -8 -361 -8 -193 -1 -325 -10 -325 -21 0 -36 908 6 1280 60 72 10 153 18 180 17 l50 -1 -50 -24 c-39 -18 -49 -35 -44 -79 4 -31 -8 -80 -27 -108 -18 -28 -23 -45 -11 -37 12 7 22 4 22 -7 0 -11 -8 -25 -19 -31 -10 -7 -18 -27 -18 -46 1 -19 -5 -66 -11 -105 -7 -38 -16 -88 -20 -110 -4 -22 -9 -42 -12 -45 -3 -3 -6 -14 -7 -26 -2 -11 -16 -29 -33 -39 -23 -15 -24 -19 -3 -20 18 0 22 -12 12 -35 -8 -19 -14 -51 -13 -70 1 -19 -7 -39 -16 -45 -10 -6 -13 -24 -7 -41 6 -16 2 -29 -10 -29 -12 0 -16 -15 -9 -33 8 -20 5 -29 -7 -21 -12 7 -19 -12 -17 -48 2 -33 -4 -64 -12 -69 -9 -6 -11 -23 -5 -40 6 -16 1 -29 -12 -29 -13 0 -19 -8 -13 -17 6 -9 0 -52 -12 -95 -13 -43 -25 -85 -27 -93 -2 -8 -6 -22 -9 -30 -3 -8 -4 -22 -2 -30 1 -8 -8 -15 -19 -15 -12 0 -16 -9 -8 -21 7 -11 2 -33 -11 -49 -13 -16 -18 -37 -12 -48 7 -10 -2 -33 -19 -50 -17 -17 -30 -35 -30 -41 3 -45 -3 -54 -28 -44 -17 6 -36 1 -43 -11 -9 -15 -4 -17 14 -6 21 12 23 10 6 -8 -14 -15 -102 -28 -229 -32 -126 -5 -211 -17 -220 -31 -8 -13 -19 -15 -25 -6 -6 10 -76 16 -156 14 -184 -4 -196 1 -189 82 12 120 -59 67 -100 -76 -20 -68 -40 -108 -44 -90 -17 75 -178 67 -189 -9 -4 -28 -21 5 -46 91 -33 114 -90 198 -90 134 0 -10 -13 -19 -30 -19 -16 0 -30 -10 -30 -22 0 -12 11 -18 25 -13 15 6 25 -7 25 -34 0 -27 -13 -44 -35 -46 -23 -2 -31 6 -22 21 9 14 1 13 -19 -3 -27 -22 -34 -22 -34 -2 0 17 -13 13 -40 -11 -33 -30 -49 -32 -89 -14 -31 14 -54 15 -61 3 -8 -12 -27 -11 -51 2 -22 11 -84 16 -139 11 -55 -5 -96 -2 -90 7 5 9 -4 28 -21 42 -25 20 -28 19 -17 -8 10 -27 -1 -33 -65 -33 -99 1 -175 40 -183 94 -4 24 -19 54 -35 67 -16 13 -29 43 -29 67 0 24 -9 53 -21 65 -12 12 -23 43 -26 70 -3 27 -12 59 -19 71 -8 12 -16 48 -18 79 -2 31 -16 73 -33 92 -16 19 -24 41 -16 48 7 7 5 23 -5 35 -10 12 -23 49 -29 82 -6 33 -21 99 -33 146 -11 48 -16 94 -11 102 5 9 -8 51 -30 94 -27 52 -32 80 -17 85 14 5 15 12 2 20 -11 7 -25 56 -33 110 -14 104 -59 250 -104 338 -34 67 -36 67 283 24 252 -34 1227 -60 1265 -34 17 12 26 96 29 269 l5 251 65 24 c198 71 195 399 -4 449 -43 11 -50 24 -50 92 l0 79 117 -12 c78 -8 122 -5 131 10 8 13 32 23 53 23 43 0 57 11 220 165 114 109 119 115 119 165 0 17 15 30 32 30 28 0 29 5 5 34 -18 23 -19 29 -2 19 17 -11 25 0 25 37 0 30 9 47 20 40 11 -7 21 -5 22 4 9 95 5 152 -12 162 -43 27 93 40 360 34 154 -3 348 -7 430 -8z m-970 -337 c-81 -127 -264 -277 -316 -259 -13 4 13 27 58 50 45 23 126 91 180 152 110 124 128 137 78 57z m-605 -658 c-8 -69 -5 -89 13 -78 40 25 117 -6 128 -52 9 -32 6 -37 -11 -20 -36 36 -63 27 -32 -12 24 -31 21 -31 -31 2 -66 43 -91 23 -92 -72 0 -100 -79 -54 -98 58 -21 122 1 212 58 241 73 37 76 35 65 -67z m103 61 c33 -13 47 -128 16 -128 -9 0 -32 32 -50 70 -33 70 -26 81 34 58z m131 -182 c1 -35 -6 -68 -14 -73 -8 -5 -15 28 -16 74 0 46 -8 101 -16 123 -9 24 -3 19 15 -10 17 -27 31 -79 31 -114z m929 -401 c-10 -31 -9 -31 12 1 23 36 24 36 51 0 26 -34 28 -34 28 -1 1 30 21 35 146 33 80 -2 129 -7 110 -12 -19 -5 -35 -21 -35 -36 0 -15 16 -31 35 -36 19 -5 -3 -10 -50 -12 -75 -2 -85 3 -87 43 -2 43 -3 43 -18 -5 l-16 -50 -2 48 -2 48 -39 -45 c-24 -27 -52 -41 -71 -34 -16 7 -54 3 -83 -8 -67 -26 -83 -10 -39 39 27 29 29 40 8 48 -14 6 -6 12 18 12 34 2 42 -7 34 -33z" /><path d="M2852 4131 c8 -20 37 -31 80 -31 88 0 87 -4 -52 -180 -139 -176 -139 -168 11 -122 65 20 207 58 314 83 107 26 195 54 195 63 0 9 -20 12 -45 7 -100 -22 -381 -71 -409 -71 -19 0 8 47 72 129 115 146 116 144 -53 149 -105 3 -123 -1 -113 -27z" /><path d="M2840 1891 l-70 -25 100 -10 c55 -6 211 -6 346 -1 264 10 344 0 344 -43 0 -25 -44 -56 -85 -60 -9 -1 -32 -27 -52 -57 -20 -30 -43 -49 -51 -41 -8 8 -8 -1 -1 -20 7 -19 4 -34 -8 -34 -12 0 -31 -34 -42 -76 -11 -42 -38 -95 -61 -119 -22 -24 -41 -64 -43 -89 -2 -25 -10 4 -17 64 -13 110 -13 110 -19 -50 -3 -114 -10 -146 -21 -110 -14 43 -17 44 -20 10 -13 -144 -11 -156 25 -166 103 -27 9 -54 -176 -50 -234 5 -301 -20 -379 -137 -29 -45 -49 -85 -44 -90 22 -22 118 22 174 79 33 34 60 55 60 47 0 -8 25 -1 56 15 31 16 67 22 81 14 20 -12 113 -14 113 -2 0 2 16 6 35 10 19 3 30 -2 24 -12 -6 -10 11 -18 38 -18 27 0 53 -12 59 -27 6 -16 36 -32 67 -38 32 -5 74 -16 94 -25 62 -27 -18 107 -88 147 -87 49 -70 113 118 425 89 150 173 300 185 335 26 76 38 77 113 14 153 -129 222 -449 146 -678 l-44 -132 -69 11 c-53 8 -68 4 -68 -21 0 -32 -1 -33 -76 -41 -25 -2 -57 -20 -71 -39 -23 -31 -31 -26 -82 51 l-56 85 63 57 c50 45 59 64 44 91 -17 31 -22 27 -42 -24 -38 -101 -59 -116 -112 -81 -67 44 -82 37 -22 -10 129 -102 171 -268 93 -367 -23 -29 -37 -53 -30 -53 21 0 171 105 171 119 0 8 25 27 55 43 30 15 86 57 123 93 38 36 85 65 106 65 21 0 34 7 28 16 -13 21 60 85 77 68 7 -7 7 3 0 22 -11 27 -5 32 24 22 23 -7 28 -5 14 5 -26 19 -13 127 15 127 9 0 11 15 4 33 -9 25 -5 30 16 19 15 -8 11 -1 -11 17 -36 29 -29 41 19 32 11 -2 9 8 -5 22 -36 36 -31 58 10 44 32 -11 32 -10 2 15 -27 24 -61 131 -66 209 -1 12 -17 46 -37 75 -19 30 -26 54 -15 54 10 0 -3 24 -30 53 -26 28 -44 59 -38 68 5 9 -1 23 -14 31 -15 9 -18 5 -9 -14 10 -19 6 -18 -12 3 -14 17 -43 27 -64 23 -20 -4 -45 4 -55 19 -14 22 -20 22 -37 -3 -11 -16 -20 -20 -20 -7 0 12 -29 23 -65 24 -36 1 -157 5 -269 9 -112 4 -200 1 -196 -6 5 -8 -35 -13 -89 -12 -53 1 -93 9 -88 17 11 18 15 19 -73 -14z" /><path d="M2380 1805 c-60 -22 -128 -85 -93 -85 18 0 33 11 34 25 0 15 10 12 27 -10 14 -19 30 -31 34 -27 4 5 20 -5 34 -20 14 -15 20 -28 13 -28 -6 0 2 -14 20 -31 17 -18 31 -49 31 -70 0 -22 12 -39 27 -39 15 0 38 -36 53 -80 15 -44 34 -80 43 -80 9 0 17 -12 17 -27 0 -14 23 -47 50 -73 59 -55 65 -38 13 37 -21 29 -50 89 -65 133 -15 44 -47 112 -72 150 -25 39 -48 90 -52 115 -3 24 -12 50 -20 58 -7 7 -4 25 9 40 23 29 -40 36 -103 12z" /><path d="M2123 1555 c-2 -30 -12 -55 -22 -55 -11 0 -14 -14 -8 -31 21 -53 51 0 42 73 -7 58 -9 60 -12 13z" /><path d="M2793 1484 c-6 -8 -16 -102 -24 -207 l-14 -192 -69 -33 c-38 -18 -77 -28 -86 -22 -9 6 -23 2 -30 -10 -7 -11 -2 -20 10 -20 14 0 5 -30 -20 -70 -60 -97 -33 -88 33 10 40 62 74 87 145 107 l92 27 3 128 c2 110 0 117 -12 48 -13 -68 -16 -57 -18 73 -2 107 5 157 22 164 18 7 18 10 1 11 -13 1 -28 -5 -33 -14z" /><path d="M2833 1447 c-49 -50 -8 -68 147 -63 137 5 160 11 160 41 0 36 -273 55 -307 22z" /><path d="M2162 977 c42 -78 242 -266 346 -323 122 -68 127 -68 64 8 -29 33 -52 86 -52 116 0 56 -12 66 -148 120 -31 13 -51 29 -44 36 12 13 -51 45 -146 75 -42 14 -44 12 -20 -32z" /><path d="M2915 597 c-19 -10 -35 -12 -35 -3 -1 26 -39 -42 -40 -69 0 -18 43 -25 150 -25 160 0 196 26 90 66 -33 13 -60 32 -60 43 0 12 -9 8 -20 -9 -15 -22 -24 -24 -35 -7 -11 17 -26 18 -50 4z" /></g></svg>