<?xml version="1.0" encoding="UTF-8" standalone="no"?>
<svg
   viewBox="-1 -1 49 50"
   version="1.1"
   id="svg44"
   sodipodi:docname="current_limit.svg"
   inkscape:version="1.2.2 (b0a84865, 2022-12-01)"
   xmlns:inkscape="http://www.inkscape.org/namespaces/inkscape"
   xmlns:sodipodi="http://sodipodi.sourceforge.net/DTD/sodipodi-0.dtd"
   xmlns="http://www.w3.org/2000/svg"
   xmlns:svg="http://www.w3.org/2000/svg">
  <defs
     id="defs48" />
  <sodipodi:namedview
     id="namedview46"
     pagecolor="#505050"
     bordercolor="#eeeeee"
     borderopacity="1"
     inkscape:showpageshadow="0"
     inkscape:pageopacity="0"
     inkscape:pagecheckerboard="0"
     inkscape:deskcolor="#505050"
     showgrid="false"
     inkscape:zoom="21.395833"
     inkscape:cx="20.938656"
     inkscape:cy="23.719572"
     inkscape:window-width="2063"
     inkscape:window-height="1205"
     inkscape:window-x="0"
     inkscape:window-y="25"
     inkscape:window-maximized="0"
     inkscape:current-layer="svg44" />
  <path
     d="M 35.934,19.139 A 1.603,1.603 0 0 0 34.55,18.355 H 25.89 L 27.916,0.927 A 0.846,0.846 0 0 0 27.073,-0.016 H 27.037 A 0.84,0.84 0 0 0 26.293,0.43 L 11.956,27.236 a 1.6,1.6 0 0 0 0.04,1.59 1.6,1.6 0 0 0 1.383,0.784 l 8.66,0.004 -2.024,17.428 a 0.85,0.85 0 0 0 0.206,0.66 c 0.16,0.18 0.39,0.283 0.633,0.283 h 0.035 a 0.84,0.84 0 0 0 0.744,-0.446 L 35.969,20.733 a 1.608,1.608 0 0 0 -0.035,-1.594 z"
     fill="#313132"
     fill-rule="evenodd"
     id="path42"
     style="display:inline;fill:none;stroke:#303031;stroke-width:2.08333333;stroke-linecap:round;stroke-linejoin:round;stroke-dasharray:none;stroke-opacity:1" />
  <path
     d="m 14.921101,22.231318 c -0.7216,1.355534 -2.330624,3.769565 -2.965101,5.004677 -0.269693,0.499563 -0.254471,1.10463 0.04,1.59 0.289373,0.488073 0.815597,0.78638 1.383,0.784 l 8.66,0.004 -2.024,17.428 c -0.02795,0.239251 0.04692,0.479127 0.206,0.66 0.16,0.18 0.39,0.283 0.633,0.283 h 0.035 c 0.311514,7.91e-4 0.597885,-0.170878 0.744,-0.446 L 35.174453,22.041666 c -13.456684,0.203341 -14.48215,0.191108 -20.253352,0.189652 z"
     fill="#313132"
     fill-rule="evenodd"
     id="path981"
     style="display:inline;fill:#313132;fill-opacity:1;stroke:#303031;stroke-width:1;stroke-linecap:round;stroke-linejoin:round;stroke-dasharray:none;stroke-opacity:1"
     inkscape:label="path981"
     sodipodi:nodetypes="cccccccscccc" />
</svg>
